<svg width="192" height="192" viewBox="0 0 192 192" fill="none" xmlns="http://www.w3.org/2000/svg">
  <rect width="192" height="192" rx="24" fill="#6200ee"/>
  <path d="M48 144V48h96v96H48z" fill="white" fill-opacity="0.1"/>
  <path d="M64 64h64v8H64V64z" fill="white"/>
  <path d="M64 80h48v8H64V80z" fill="white"/>
  <path d="M64 96h56v8H64V96z" fill="white"/>
  <path d="M64 112h40v8H64V112z" fill="white"/>
  <circle cx="144" cy="72" r="12" fill="#FFD700"/>
  <path d="M144 66l3 6h6l-5 4 2 6-6-4-6 4 2-6-5-4h6z" fill="#6200ee"/>
  <rect x="80" y="128" width="32" height="4" rx="2" fill="#4CAF50"/>
</svg>